<svg xmlns="http://www.w3.org/2000/svg" width="262" height="262" stroke="#000" stroke-linecap="round" stroke-linejoin="round" fill="#fff" fill-rule="evenodd"><path d="M243 260H0V0h170v56a31 31 0 0 0-8 6c-8 8-10 20-5 30l-68 68c-11-4-22-2-30 6a27 27 0 0 0 0 37 27 27 0 0 0 38 0c6-7 9-17 6-27l67-67v52a32 32 0 0 0-8 5 27 27 0 0 0 0 38 27 27 0 0 0 38 0 27 27 0 0 0 0-38l-8-5v-55l8-6a27 27 0 0 0 0-38l-8-5V0h68v260zM15 23c0-3 2-5 5-5h130c3 0 5 2 5 5v8c0 2-2 5-5 5H20c-3 0-5-3-5-5zm0 35c0-3 2-5 5-5h115c3 0 5 2 5 5v8c0 2-2 5-5 5H20c-3 0-5-3-5-5zm0 35c0-3 2-5 5-5h95c3 0 5 2 5 5v8c0 2-2 5-5 5H20c-3 0-5-3-5-5zm0 35c0-3 2-5 5-5h65c3 0 5 2 5 5v8c0 2-2 5-5 5H20c-3 0-5-3-5-5zm0 35c0-3 2-5 5-5h15c3 0 5 2 5 5v8c0 2-2 5-5 5H20c-3 0-5-3-5-5z" fill="#0078d7" stroke="none"/></svg>