<svg xmlns="http://www.w3.org/2000/svg" width="261" height="261" stroke="#000" stroke-linecap="round" stroke-linejoin="round" fill="#fff" fill-rule="evenodd"><path fill="#0078d7" d="M237.8 260.4l-216.3-.1C9.8 261 .1 251.2.1 239L0 22.6C-.6 11 9.2 1.2 21.4 1.2l149-1.2v56.2c-2.4 1.2-5.5 3-8 5.5-8 8-10.4 20.2-5.5 30L88.7 160c-10.4-4.3-22-2.4-30 5.5a27 27 0 0 0 0 37.9 27 27 0 0 0 37.9 0 27 27 0 0 0 6.1-26.9l67.2-67.2v51.3c-2.5 1.3-5.5 3-8 5.5a27 27 0 0 0 0 37.9 27 27 0 0 0 37.9 0 27 27 0 0 0 0-37.9c-2.4-2.4-5.5-4.2-8-5.5v-55c2.5-1.2 5.5-3 8-5.5a27 27 0 0 0 0-37.9c-2.5-2.4-5.5-4.2-8-5.5V.6l47 .6c11.6-.6 21.4 9.2 21.4 21.4l-.6 217c.6 11.6-9.2 21.4-22 20.8zM15.2 23.2a5 5 0 0 1 5-5h130a5 5 0 0 1 5 5v7.5c0 2.8-2.2 5-5 5h-130c-2.8 0-5-2.2-5-5zm0 35a5 5 0 0 1 5-5h115a5 5 0 0 1 5 5v7.5c0 2.8-2.2 5-5 5h-115c-2.8 0-5-2.2-5-5zm0 35a5 5 0 0 1 5-5h95a5 5 0 0 1 5 5v7.5c0 2.8-2.2 5-5 5h-95c-2.8 0-5-2.2-5-5zm0 35a5 5 0 0 1 5-5h65a5 5 0 0 1 5 5v7.5c0 2.8-2.2 5-5 5h-65c-2.8 0-5-2.2-5-5zm0 35a5 5 0 0 1 5-5h15a5 5 0 0 1 5 5v7.5c0 2.8-2.2 5-5 5h-15c-2.8 0-5-2.2-5-5z" stroke="none"/></svg>